<?xml version="1.0" encoding="utf-8"?>
<!-- Generator: Adobe Illustrator 16.0.0, SVG Export Plug-In . SVG Version: 6.00 Build 0)  -->
<!DOCTYPE svg PUBLIC "-//W3C//DTD SVG 1.0//EN" "http://www.w3.org/TR/2001/REC-SVG-20010904/DTD/svg10.dtd">
<svg version="1.0" id="Ebene_1" xmlns="http://www.w3.org/2000/svg" xmlns:xlink="http://www.w3.org/1999/xlink" x="0px" y="0px"
	 width="343.42px" height="314.14px" viewBox="-3.85 -4.22 343.42 314.14" enable-background="new -3.85 -4.22 343.42 314.14"
	 xml:space="preserve">
<path fill="#FFFFFF" d="M336.281,292.506l-87.414-79.13c15.498-22.402,24.593-49.563,24.593-78.815
	c0-76.524-62.198-138.78-138.65-138.78C58.353-4.22-3.85,58.036-3.85,134.56c0,76.529,62.203,138.79,138.66,138.79
	c40.045,0,76.173-17.089,101.507-44.357l86.542,78.341c1.914,1.732,4.314,2.586,6.708,2.586c2.727,0,5.442-1.108,7.417-3.289
	C340.69,302.536,340.376,296.213,336.281,292.506z M134.81,253.35c-65.43,0-118.66-53.289-118.66-118.79
	c0-65.496,53.23-118.78,118.66-118.78c65.423,0,118.65,53.285,118.65,118.78C253.46,200.061,200.233,253.35,134.81,253.35z"/>
</svg>
